<svg width="296" height="48" viewBox="0 0 296 48" fill="none" xmlns="http://www.w3.org/2000/svg">
<g clip-path="url(#clip0_89_5)">
<path d="M90.773 31.0901C89.1533 34.2304 86.1798 35.9493 81.0875 35.9493C75.6993 35.9493 71.0715 33.404 71.0715 26.3631C71.0715 19.2557 75.0953 15.1239 80.757 15.1239C86.5088 15.1239 89.4177 17.4379 90.5746 21.1733L85.1534 23.9499C84.7898 21.636 83.2827 20.2807 81.6165 20.2807C79.6621 20.2807 77.4514 21.9659 77.4514 25.3052C77.4514 28.8424 79.2526 30.462 81.5173 30.462C83.3547 30.462 84.8229 29.3381 85.4179 27.7184L90.773 31.0901Z" fill="black"/>
<path d="M90.938 15.5536L97.3178 14.7603L97.4169 23.5202L102.739 23.1236L102.475 14.8265L108.722 14.2975L109.516 35.0899L103.599 34.8255L102.871 28.115L97.5492 28.2803L97.6154 35.6518L91.8636 34.9576L90.938 15.5536Z" fill="black"/>
<path d="M108.826 35.4865L115.432 14.4628L121.845 15.4545L129.949 34.8254L122.143 36.0155L121.184 31.8834L116.754 31.9164L115.432 35.9162L108.826 35.4865ZM120.358 26.7597L118.804 22.4624L117.349 26.6936L120.358 26.7597Z" fill="black"/>
<path d="M125.581 15.4875L143.332 14L143.233 19.5865L138.142 19.884L138.77 35.1229L132.423 34.5609L131.828 20.0163L126.407 20.6774L125.581 15.4875Z" fill="black"/>
<path d="M163.761 31.0901C162.141 34.2304 159.167 35.9493 154.075 35.9493C148.687 35.9493 144.059 33.404 144.059 26.3631C144.059 19.2557 148.083 15.1239 153.745 15.1239C159.496 15.1239 162.405 17.4379 163.562 21.1733L158.141 23.9499C157.777 21.636 156.27 20.2807 154.604 20.2807C152.65 20.2807 150.439 21.9659 150.439 25.3052C150.439 28.8424 152.24 30.462 154.505 30.462C156.342 30.462 157.81 29.3381 158.405 27.7184L163.761 31.0901Z" fill="black"/>
<path d="M164.157 15.5536L170.537 14.7603L170.636 23.5202L175.958 23.1236L175.694 14.8265L181.941 14.2975L182.735 35.0899L176.818 34.8255L176.09 28.115L170.768 28.2803L170.834 35.6518L165.083 34.9576L164.157 15.5536Z" fill="black"/>
<path d="M182.045 35.4865L188.651 14.4628L195.064 15.4545L203.168 34.8254L195.362 36.0155L194.403 31.8834L189.974 31.9164L188.651 35.9162L182.045 35.4865ZM193.577 26.7597L192.023 22.4624L190.569 26.6936L193.577 26.7597Z" fill="black"/>
<path d="M198.8 15.4875L216.551 14L216.452 19.5865L211.361 19.884L211.989 35.1229L205.642 34.5609L205.047 20.0163L199.626 20.6774L198.8 15.4875Z" fill="black"/>
<path d="M216.584 16.5784L223.989 16.0165L227.426 26.3961L231.063 16.3801L238.566 15.5868L238.401 36.1808L232.815 35.9163L233.112 25.1069L229.674 34.9907L225.124 35.2552C225.124 35.2552 222.62 24.9746 222.6 24.9746L223.03 35.7841L217.377 36.3129L216.584 16.5784Z" fill="black"/>
<path d="M238.075 35.4865L244.681 14.4628L251.094 15.4545L259.198 34.8254L251.391 36.0155L250.433 31.8834L246.003 31.9164L244.681 35.9162L238.075 35.4865ZM249.606 26.7597L248.053 22.4624L246.598 26.6936L249.606 26.7597Z" fill="black"/>
<path d="M264.515 35.4205L257.87 34.7593L259.027 15.1239C259.027 15.1239 263.986 14.3636 268.019 14.3636C274.299 14.3636 277.109 17.5691 277.109 22.6938C277.109 26.1087 275.765 28.0423 273.26 28.9095L273.275 28.9084L276.845 36.3129L270.101 35.8171L267.457 29.3711L267.477 29.3695C266.027 29.2334 264.581 29.0075 264.581 29.0075L264.515 35.4205ZM264.68 24.1813C264.68 24.1813 266.889 24.5449 268.548 24.5449C269.963 24.5449 271.06 24.1243 271.06 22.9252C271.06 21.4898 270.201 20.5451 268.118 20.5451C266.829 20.5451 264.812 20.6774 264.812 20.6774L264.68 24.1813Z" fill="black"/>
<path d="M277.34 17.0081L283.489 16.4792C283.489 16.4792 283.423 23.5496 283.423 28.71C283.423 30.2984 284.341 31.1893 286.265 31.1893C288.287 31.1893 289.373 30.4637 289.373 28.8753C289.373 23.7149 289.307 16.6115 289.307 16.6115L295.918 15.9834C295.918 15.9834 295.356 24.9236 295.356 30.0984C295.356 34.34 291.501 36.2799 286.728 36.2799C281.241 36.2799 277.638 34.0056 277.638 29.8846C277.638 24.5462 277.34 17.0081 277.34 17.0081Z" fill="black"/>
<path d="M38.2667 7.05784C34.7772 4.32691 38.4213 -0.364082 41.6684 0.0224762C44.9155 0.409035 45.6886 3.11494 44.5289 4.89311C43.3693 6.67128 40.0449 8.44945 38.2667 7.05784Z" fill="black"/>
<path d="M47.0802 15.9487C39.5809 13.3201 25.8195 11.8512 20.6396 12.0831C15.4597 12.315 10.5602 14.7982 8.65626 20.5101C6.80079 26.0765 9.35208 40.0699 12.4445 43.8582C15.537 47.6465 22.4951 49.27 32.159 46.8734C41.823 44.4767 48.5213 42.715 50.0953 37.9052C50.9705 35.2311 52.1828 31.1018 52.6466 27.7001C53.1105 24.2983 54.5794 18.5773 47.0802 15.9487ZM38.2947 24.421C39.0154 21.9703 42.1425 22.3792 43.1817 22.8515C46.6161 24.4124 44.3658 30.0666 41.4619 29.5208C38.5581 28.975 37.574 26.8717 38.2947 24.421ZM17.3686 18.1048C21.8526 15.6774 26.9967 19.2869 26.1979 24.3699C25.4863 28.8977 22.0073 30.9079 19.7652 30.9079C14.9719 30.9079 11.4501 21.3085 17.3686 18.1048ZM44.4836 38.6381C41.855 40.3761 37.5256 42.8532 37.5256 42.8532L38.5306 39.2968C38.5306 39.2968 25.1557 41.7708 23.1456 42.0027C21.1355 42.2347 16.869 41.9254 16.5597 38.2918C16.3757 36.1293 17.9657 33.6531 21.6767 33.5758C25.3876 33.4984 41.7777 32.8026 44.0971 33.1892C46.4164 33.5758 47.1122 36.9002 44.4836 38.6381Z" fill="black"/>
<path d="M57.1079 26.695C56.2886 26.1159 55.4247 25.6129 54.5914 25.1857C54.3053 27.7733 53.7413 31.6817 52.7488 34.4056C53.282 34.2915 53.7605 34.1053 54.0655 33.8077C55.1751 32.7253 59.2955 28.2413 57.1079 26.695Z" fill="black"/>
<path d="M23.1415 36.6141L20.7129 36.5181L20.6173 38.9368L23.0459 39.0328L23.1415 36.6141Z" fill="black"/>
<path d="M34.6173 35.6289L32.5059 35.7145L32.5911 37.8173L34.7025 37.7317L34.6173 35.6289Z" fill="black"/>
<path d="M29.0603 38.1193L26.9805 38.7304L26.3669 36.6591L28.4467 36.0481L29.0603 38.1193Z" fill="black"/>
<path d="M40.5913 37.0004L38.5948 37.3892L38.2043 35.4009L40.2009 35.012L40.5913 37.0004Z" fill="black"/>
<path d="M5.02937 26.6308C4.92198 26.7033 4.81599 26.7762 4.71347 26.8496C0.27197 30.0296 -0.915488 32.086 0.667488 34.5293C3.0384 38.1887 4.37426 38.3408 6.6978 38.5533C7.1698 38.5965 7.65717 38.6199 8.13967 38.6306C6.01011 34.1266 5.27459 29.5861 5.02937 26.6308Z" fill="black"/>
</g>
<defs>
<clipPath id="clip0_89_5">
<rect width="295.388" height="48" fill="white"/>
</clipPath>
</defs>
</svg>
